<svg width="105" height="26" viewBox="0 0 105 26" fill="none" xmlns="http://www.w3.org/2000/svg">
<g clip-path="url(#clip0)">
<path d="M39.5449 21.0195L-0.0431519 13.4526V14.8287L39.5449 24.6882V21.0195Z" fill="#102C53"/>
<path d="M41.8596 15.8217V18.8796L5.8992 12.1529V11.0062L41.8596 15.8217Z" fill="#102C53"/>
<path d="M44.3295 10.5483V13.0703L11.9952 9.47805V8.56067L44.3295 10.5483Z" fill="#102C53"/>
<path d="M18.0147 6.1151V6.72669L46.6442 7.18461V5.27417L18.0147 6.1151Z" fill="#102C53"/>
<path d="M24.0333 3.66874V4.12743L49.114 1.37607V0L24.0333 3.66874Z" fill="#102C53"/>
<path d="M64.8564 8.25485H63.0811V6.95523H59.2999V9.93671H61.7698C64.2389 9.93671 65.9369 11.0827 65.9369 13.3761C65.9369 15.7452 64.3932 17.0449 62.0785 17.0449H55.7503V15.4394H56.908V6.95523H55.7503V5.35059H64.8564V8.25485ZM59.2999 11.5414V15.4394H61.5382C62.6188 15.4394 63.4671 14.6757 63.4671 13.3761C63.4671 12.0765 62.6188 11.5414 61.4611 11.5414H59.2999Z" fill="#102C53"/>
<path d="M68.8691 17.0449V15.4394H70.0269V6.95523H68.8691V5.35059H78.4383V8.71354H76.6631V6.95523H72.496V15.4394H74.1168V17.0449H68.8691Z" fill="#102C53"/>
<path d="M83.6087 17.0449V15.4394H84.998V6.95523H82.7597L82.8369 8.86643H81.0617V5.35059H91.3255V8.86643H89.6275V6.95523H87.4671V15.4394H88.7792V17.0449H83.6087Z" fill="#102C53"/>
<path d="M98.2704 5.35059V6.95523H97.2678L98.5791 10.0896L99.5053 12.5352H99.5825L100.509 10.0896L101.744 6.95523H100.663V5.35059H104.907V6.95523H104.058L100.586 15.3638C99.9684 16.7391 99.1966 17.2742 98.0388 17.2742C97.4993 17.2742 96.7275 17.1977 95.6469 16.892L96.0328 15.2873C96.6503 15.4394 97.0362 15.5159 97.4221 15.5159C97.8852 15.5159 98.194 15.2873 98.5019 14.6757L98.7335 13.9877H98.0388L94.7979 6.95523H93.9489V5.35059H98.2704Z" fill="#102C53"/>
<path d="M58.3745 22.1763C58.2973 22.2528 56.908 24.469 56.8308 24.6219H56.2905V21.7941H55.8274V21.4119H56.8308V23.8582C56.9852 23.6289 57.0624 23.476 57.1395 23.3231L57.8342 22.2528L58.4516 21.4119H58.914C58.914 22.3292 58.9912 23.2466 58.9912 24.1632H59.4543V24.469C59.2227 24.6219 58.9912 24.6219 58.8376 24.6219C58.606 24.6219 58.4516 24.469 58.4516 24.1632V22.1763H58.3745Z" fill="#102C53"/>
<path d="M63.1584 22.3292C63.0812 22.4821 63.0048 22.7115 62.8504 22.9408C62.6189 23.3231 62.4645 23.7818 62.1558 24.2404H61.7699C61.7699 24.1632 61.3839 23.476 61.0752 22.9408C60.9208 22.635 60.7665 22.3292 60.7665 22.2528H60.6893V24.6219H60.2262V21.7941H59.7631V21.4119H60.7665L61.6155 22.9408C61.7699 23.2466 61.9242 23.5524 62.0014 23.7053C62.0014 23.6289 62.233 23.2466 62.3873 22.8644L63.1584 21.4119H64.1618V21.7941H63.6987V24.1632H64.1618V24.469C64.0074 24.6219 63.7759 24.6219 63.6215 24.6219C63.1584 24.6219 63.2363 24.2404 63.2363 23.9347V22.3292H63.1584Z" fill="#102C53"/>
<path d="M65.1232 24.6235C64.853 24.6235 64.7758 24.3941 64.7758 24.2794C64.7758 24.0882 64.9302 23.9353 65.1232 23.9353C65.3162 23.9353 65.4706 24.0882 65.4706 24.2794C65.4706 24.3941 65.3934 24.6235 65.1232 24.6235Z" fill="#102C53"/>
<path d="M67.9428 20.4942V20.1119H69.8724C70.7986 20.1119 71.3388 20.5706 71.3388 21.2587C71.3388 21.488 71.1845 22.0231 70.6442 22.2525C71.2617 22.4054 71.416 22.8641 71.416 23.3228C71.416 24.0865 70.8758 24.6216 70.1811 24.6216H67.8656V24.1629H68.3287V20.4942H67.9428ZM69.8724 20.4942H68.869V22.0231H69.8724C70.4127 22.0231 70.7214 21.7173 70.7214 21.2587C70.7214 20.8764 70.4898 20.4942 69.8724 20.4942ZM69.9496 22.4818H68.869V24.1629H69.9496C70.6442 24.1629 70.8758 23.7814 70.8758 23.3228C70.8758 22.8641 70.567 22.4818 69.9496 22.4818Z" fill="#102C53"/>
<path d="M72.4193 24.6235C72.1877 24.6235 72.0332 24.4706 72.0332 24.2794C72.0332 24.0882 72.1876 23.9353 72.4193 23.9353C72.6509 23.9353 72.8053 24.0882 72.8053 24.2794C72.8053 24.4706 72.6509 24.6235 72.4193 24.6235Z" fill="#102C53"/>
<path d="M75.1973 24.6216V24.1629H75.5832V20.4942H75.1973V20.1119H78.4382V21.1058H77.9751V20.4942H76.2007V24.1629H76.8173V24.6216H75.1973Z" fill="#102C53"/>
<path d="M78.5927 24.6226C78.3612 24.6226 78.2097 24.4706 78.2097 24.2794C78.2097 24.0882 78.3641 23.9353 78.5927 23.9353C78.8213 23.9353 78.9817 24.0882 78.9817 24.2794C78.9817 24.4706 78.8242 24.6226 78.5927 24.6226Z" fill="#102C53"/>
<path d="M83.9993 20.4942H83.6134V20.1119H85.0027V20.4942H84.6168V24.1629H86.2368V20.4942H85.7737V20.1119H87.163V20.4942H86.7771V24.1629H87.163V24.6216H81.3751V24.1629H81.8382V20.4942H81.3751V20.1119H82.7644V20.4942H82.3784V24.1629H83.9993V20.4942Z" fill="#102C53"/>
<path d="M89.4804 23.5524L90.0207 21.7941H89.6348V21.4119H90.8697V21.7941H90.561L89.404 25.0806C89.2488 25.5393 89.0953 25.998 88.4006 25.998C88.3234 25.998 88.0919 25.998 87.7831 25.9215L87.8603 25.5393C88.0147 25.5393 88.2462 25.6157 88.4006 25.6157C88.7093 25.6157 88.8637 25.31 88.9409 24.9277L89.0953 24.5455H88.8637C88.555 23.6289 88.2462 22.7115 87.9375 21.7941H87.5516V21.4119H88.3234L89.0181 23.5524L89.1724 24.2404H89.2488L89.4804 23.5524Z" fill="#102C53"/>
<path d="M92.8693 21.4119H94.1034V21.7941H93.7175L92.9464 22.9408L93.7175 24.1632H94.1806V24.6219H92.8693V24.1632H93.1008L92.5605 23.2466L92.0202 24.1632H92.2518V24.6219H91.0168V24.1632H91.4028L92.2518 22.8644L91.6343 21.7941H91.094V21.4119H91.943L92.6377 22.5586L93.1008 21.7941H92.8693V21.4119Z" fill="#102C53"/>
<path d="M95.8894 24.6218C94.886 24.6218 94.5001 23.8581 94.5001 23.0172C94.5001 22.1763 94.886 21.3353 95.9665 21.3353C97.0471 21.3353 97.3558 22.1763 97.3558 23.0172C97.3558 23.7817 97.0471 24.6218 95.8894 24.6218ZM95.9665 21.794C95.2719 21.794 95.1175 22.4056 95.1175 23.0172C95.1175 23.6288 95.1947 24.2404 95.9665 24.2404C96.6612 24.2404 96.8155 23.5523 96.8155 23.0172C96.8155 22.482 96.6612 21.794 95.9665 21.794Z" fill="#102C53"/>
<path d="M100.586 22.2528C100.586 22.4057 100.509 22.7115 100.2 22.8644C100.586 23.0937 100.74 23.3995 100.74 23.7053C100.74 24.2404 100.277 24.6219 99.6597 24.6219H97.8853V24.2404H98.194V21.7941H97.8853V21.4119H99.5825C100.277 21.4119 100.586 21.7177 100.586 22.2528ZM98.7335 21.7941V22.7879H99.5054C99.8141 22.7879 100.046 22.5586 100.046 22.2528C100.046 21.947 99.8913 21.7941 99.4282 21.7941H98.7335ZM98.7335 23.0937V24.2404H99.5054C99.9685 24.2404 100.2 23.9347 100.2 23.6289C100.2 23.3995 99.9685 23.0937 99.5054 23.0937H98.7335Z" fill="#102C53"/>
<path d="M103.673 24.1631H104.213V24.4689C104.059 24.5454 103.75 24.6218 103.595 24.6218C103.364 24.6218 103.21 24.5454 103.21 24.2404C102.669 24.6218 102.284 24.6218 102.053 24.6218C101.358 24.6218 101.126 24.0867 101.126 23.7052C101.126 23.1701 101.512 22.7878 102.361 22.7878L103.21 22.7114V22.482C103.21 21.9469 102.978 21.794 102.515 21.794C102.13 21.794 101.821 21.8705 101.512 21.9469C101.435 21.8705 101.435 21.7176 101.358 21.5647C101.744 21.4118 102.207 21.3353 102.593 21.3353C103.287 21.3353 103.673 21.6411 103.673 22.4056V24.1631ZM102.361 23.0936C101.975 23.1701 101.744 23.3994 101.744 23.7052C101.744 24.011 101.898 24.2404 102.284 24.2404C102.593 24.2404 102.901 24.0867 103.132 23.8581V23.0936H102.361Z" fill="#102C53"/>
</g>
<defs>
<clipPath id="clip0">
<rect width="105" height="26" fill="white"/>
</clipPath>
</defs>
</svg>
