<svg width="18" height="18" viewBox="0 0 18 18" fill="none" xmlns="http://www.w3.org/2000/svg">
<path d="M8.53434 8.34051H15.7424L12.9576 5.55573C12.7005 5.29856 12.7005 4.87975 12.9576 4.6189C13.2148 4.36173 13.6336 4.36173 13.8945 4.6189L17.8071 8.53522C18.0643 8.79239 18.0643 9.21121 17.8071 9.47205L13.8945 13.3847C13.7659 13.5133 13.5969 13.5794 13.4279 13.5794C13.2589 13.5794 13.0899 13.5133 12.9613 13.3847C12.7042 13.1275 12.7042 12.7087 12.9613 12.4479L15.7424 9.66309H8.53434C8.17063 9.66309 7.87305 9.36551 7.87305 9.0018C7.87305 8.63809 8.17063 8.34051 8.53434 8.34051Z" fill="#3B3D48"/>
<path d="M4.39024 8.34058H5.90386C6.26757 8.34058 6.56516 8.63816 6.56516 9.00187C6.56516 9.36558 6.26757 9.66316 5.90386 9.66316H4.39024C4.02286 9.66316 3.72895 9.36558 3.72895 9.00187C3.72895 8.63816 4.02653 8.34058 4.39024 8.34058Z" fill="#3B3D48"/>
<path d="M0.661395 1.24255H5.03692C5.40063 1.24255 5.69821 1.54014 5.69821 1.90385C5.69821 2.26756 5.40063 2.56514 5.03692 2.56514H1.32268V15.4346H5.03692C5.40063 15.4346 5.69821 15.7322 5.69821 16.0959C5.69821 16.4596 5.40063 16.7572 5.03692 16.7572H0.661395C0.297686 16.7572 0.000105858 16.4596 0.000105858 16.0959V1.90385C0.000105858 1.54014 0.297686 1.24255 0.661395 1.24255Z" fill="#3B3D48"/>
</svg>
