<svg width="183" height="45" viewBox="0 0 183 45" fill="none" xmlns="http://www.w3.org/2000/svg">
<g clip-path="url(#clip0)">
<path d="M68.9201 36.3797L-0.0761719 23.2832V25.6649L68.9201 42.7294V36.3797Z" fill="#122D52"/>
<path d="M72.9551 27.3838V32.6763L10.2812 21.034V19.0493L72.9551 27.3838Z" fill="#122D52"/>
<path d="M77.2604 18.2566V22.6216L20.9062 16.4042V14.8164L77.2604 18.2566Z" fill="#122D52"/>
<path d="M31.3965 10.5839V11.6424L81.2937 12.4349V9.12842L31.3965 10.5839Z" fill="#122D52"/>
<path d="M41.8867 6.34975V7.14364L85.5988 2.38165V0L41.8867 6.34975Z" fill="#122D52"/>
<path d="M113.035 14.2874H109.941V12.038H103.351V17.1983H107.655C111.959 17.1983 114.918 19.1816 114.918 23.1511C114.918 27.2515 112.228 29.5008 108.193 29.5008H97.1641V26.7222H99.1819V12.038H97.1641V9.26074H113.035V14.2874ZM103.351 19.9755V26.7222H107.252C109.135 26.7222 110.613 25.4004 110.613 23.1511C110.613 20.9017 109.135 19.9755 107.117 19.9755H103.351Z" fill="#122D52"/>
<path d="M120.029 29.5008V26.7222H122.047V12.038H120.029V9.26074H136.707V15.0812H133.613V12.038H126.35V26.7222H129.175V29.5008H120.029Z" fill="#122D52"/>
<path d="M145.718 29.5008V26.7222H148.14V12.038H144.239L144.373 15.3459H141.279V9.26074H159.168V15.3459H156.208V12.038H152.443V26.7222H154.73V29.5008H145.718Z" fill="#122D52"/>
<path d="M171.272 9.26074V12.038H169.525L171.81 17.4629L173.424 21.6956H173.559L175.173 17.4629L177.325 12.038H175.442V9.26074H182.839V12.038H181.36L175.308 26.5912C174.231 28.9716 172.886 29.8978 170.868 29.8978C169.928 29.8978 168.583 29.7655 166.7 29.2362L167.372 26.4589C168.448 26.7222 169.121 26.8545 169.794 26.8545C170.601 26.8545 171.139 26.4589 171.676 25.4004L172.079 24.2096H170.868L165.22 12.038H163.74V9.26074H171.272Z" fill="#122D52"/>
<path d="M101.738 38.3817C101.603 38.5141 99.1821 42.3498 99.0476 42.6145H98.1059V37.7202H97.2988V37.0586H99.0476V41.2926C99.3166 40.8957 99.4511 40.6311 99.5857 40.3665L100.796 38.5141L101.872 37.0586H102.678C102.678 38.6464 102.813 40.2341 102.813 41.8206H103.62V42.3498C103.216 42.6145 102.813 42.6145 102.545 42.6145C102.142 42.6145 101.872 42.3498 101.872 41.8206V38.3817H101.738Z" fill="#122D52"/>
<path d="M110.076 38.6464C109.941 38.911 109.808 39.3079 109.539 39.7049C109.135 40.3665 108.866 41.1603 108.328 41.9542H107.656C107.656 41.8206 106.983 40.6311 106.445 39.7049C106.176 39.1756 105.907 38.6464 105.907 38.5141H105.772V42.6145H104.965V37.7202H104.158V37.0586H105.907L107.387 39.7049C107.656 40.2341 107.925 40.7634 108.059 41.028C108.059 40.8957 108.463 40.2341 108.732 39.5726L110.076 37.0586H111.825V37.7202H111.017V41.8206H111.825V42.3498C111.555 42.6145 111.152 42.6145 110.883 42.6145C110.076 42.6145 110.212 41.9542 110.212 41.425V38.6464H110.076Z" fill="#122D52"/>
<path d="M113.5 42.6174C113.029 42.6174 112.895 42.2204 112.895 42.0219C112.895 41.691 113.164 41.4263 113.5 41.4263C113.836 41.4263 114.106 41.691 114.106 42.0219C114.106 42.2204 113.971 42.6174 113.5 42.6174Z" fill="#122D52"/>
<path d="M118.414 35.4702V34.8086H121.777C123.391 34.8086 124.333 35.6025 124.333 36.7933C124.333 37.1902 124.064 38.1164 123.122 38.5134C124.198 38.778 124.467 39.5719 124.467 40.3658C124.467 41.6876 123.526 42.6138 122.315 42.6138H118.279V41.8199H119.086V35.4702H118.414ZM121.777 35.4702H120.028V38.1164H121.777C122.718 38.1164 123.256 37.5872 123.256 36.7933C123.256 36.1317 122.853 35.4702 121.777 35.4702ZM121.911 38.9103H120.028V41.8199H121.911C123.122 41.8199 123.526 41.1597 123.526 40.3658C123.526 39.5719 122.987 38.9103 121.911 38.9103Z" fill="#122D52"/>
<path d="M126.216 42.6174C125.812 42.6174 125.543 42.3527 125.543 42.0219C125.543 41.691 125.812 41.4263 126.216 41.4263C126.619 41.4263 126.889 41.691 126.889 42.0219C126.889 42.3527 126.619 42.6174 126.216 42.6174Z" fill="#122D52"/>
<path d="M131.059 42.6138V41.8199H131.731V35.4702H131.059V34.8086H136.707V36.5287H135.9V35.4702H132.807V41.8199H133.882V42.6138H131.059Z" fill="#122D52"/>
<path d="M136.976 42.6158C136.573 42.6158 136.309 42.3527 136.309 42.0219C136.309 41.691 136.578 41.4263 136.976 41.4263C137.374 41.4263 137.654 41.691 137.654 42.0219C137.654 42.3527 137.38 42.6158 136.976 42.6158Z" fill="#122D52"/>
<path d="M146.398 35.4702H145.725V34.8086H148.147V35.4702H147.474V41.8199H150.298V35.4702H149.49V34.8086H151.912V35.4702H151.239V41.8199H151.912V42.6138H141.824V41.8199H142.631V35.4702H141.824V34.8086H144.246V35.4702H143.573V41.8199H146.398V35.4702Z" fill="#122D52"/>
<path d="M155.952 40.7634L156.893 37.7202H156.221V37.0586H158.373V37.7202H157.835L155.818 43.4083C155.548 44.2022 155.28 44.9961 154.07 44.9961C153.935 44.9961 153.531 44.9961 152.993 44.8638L153.128 44.2022C153.397 44.2022 153.801 44.3345 154.07 44.3345C154.608 44.3345 154.877 43.8053 155.011 43.1437L155.28 42.4821H154.877C154.339 40.8957 153.801 39.3079 153.262 37.7202H152.59V37.0586H153.935L155.146 40.7634L155.415 41.9542H155.548L155.952 40.7634Z" fill="#122D52"/>
<path d="M161.857 37.0586H164.008V37.7202H163.336L161.992 39.7049L163.336 41.8206H164.143V42.6145H161.857V41.8206H162.261L161.319 40.2341L160.378 41.8206H160.781V42.6145H158.629V41.8206H159.302L160.781 39.5726L159.705 37.7202H158.763V37.0586H160.243L161.454 39.0433L162.261 37.7202H161.857V37.0586Z" fill="#122D52"/>
<path d="M167.121 42.6144C165.372 42.6144 164.699 41.2926 164.699 39.8372C164.699 38.3817 165.372 36.9263 167.255 36.9263C169.138 36.9263 169.676 38.3817 169.676 39.8372C169.676 41.1603 169.138 42.6144 167.121 42.6144ZM167.255 37.7202C166.044 37.7202 165.775 38.7787 165.775 39.8372C165.775 40.8957 165.91 41.9542 167.255 41.9542C168.466 41.9542 168.735 40.7634 168.735 39.8372C168.735 38.911 168.466 37.7202 167.255 37.7202Z" fill="#122D52"/>
<path d="M175.306 38.5141C175.306 38.7787 175.172 39.3079 174.634 39.5726C175.306 39.9695 175.576 40.4988 175.576 41.028C175.576 41.9542 174.768 42.6145 173.692 42.6145H170.6V41.9542H171.138V37.7202H170.6V37.0586H173.558C174.768 37.0586 175.306 37.5879 175.306 38.5141ZM172.078 37.7202V39.4403H173.423C173.961 39.4403 174.365 39.0433 174.365 38.5141C174.365 37.9848 174.096 37.7202 173.289 37.7202H172.078ZM172.078 39.9695V41.9542H173.423C174.23 41.9542 174.634 41.425 174.634 40.8957C174.634 40.4988 174.23 39.9695 173.423 39.9695H172.078Z" fill="#122D52"/>
<path d="M180.686 41.8206H181.627V42.3498C181.358 42.4821 180.82 42.6144 180.551 42.6144C180.148 42.6144 179.879 42.4821 179.879 41.9542C178.937 42.6144 178.266 42.6144 177.862 42.6144C176.652 42.6144 176.248 41.6882 176.248 41.028C176.248 40.1018 176.921 39.4402 178.4 39.4402L179.879 39.3079V38.911C179.879 37.9848 179.475 37.7202 178.668 37.7202C177.997 37.7202 177.459 37.8525 176.921 37.9848C176.786 37.8525 176.786 37.5878 176.652 37.3232C177.324 37.0586 178.131 36.9263 178.804 36.9263C180.013 36.9263 180.686 37.4555 180.686 38.7787V41.8206ZM178.4 39.9695C177.728 40.1018 177.324 40.4987 177.324 41.028C177.324 41.5573 177.593 41.9542 178.266 41.9542C178.804 41.9542 179.341 41.6882 179.744 41.2926V39.9695H178.4Z" fill="#122D52"/>
</g>
<defs>
<clipPath id="clip0">
<rect width="183" height="45" fill="white"/>
</clipPath>
</defs>
</svg>
