<svg width="22" height="22" viewBox="0 0 22 22" fill="none" xmlns="http://www.w3.org/2000/svg">
<g clip-path="url(#clip0)">
<path d="M19.7971 17.2676C19.6123 16.9837 19.423 16.7087 19.2337 16.4428C19.094 16.24 18.9588 16.0507 18.8281 15.8569C18.7605 15.7532 18.6929 15.6541 18.6252 15.5549C18.2737 15.0276 17.9086 14.4823 17.5751 13.9369C16.9892 12.9814 16.6512 11.9493 16.5385 10.7775C16.4574 9.91662 16.3357 9.06028 16.1689 8.23098C15.939 7.07267 15.4207 6.15773 14.6275 5.51323C13.7261 4.76956 12.5633 4.52167 11.3464 4.81013C10.6342 4.98139 9.9041 4.70646 9.57058 4.14759C9.40833 3.87717 9.3272 3.56618 9.33621 3.24618C9.35875 2.37632 10.0889 1.65068 10.9588 1.62364C11.6664 1.60561 12.3154 2.03829 12.5678 2.70083C12.7255 3.11998 13.1943 3.33181 13.6134 3.16956C14.0326 3.01181 14.2444 2.54308 14.0821 2.12392C13.5864 0.816878 12.3109 -0.0349546 10.9092 0.00110181C10.0754 0.0236371 9.28213 0.37068 8.68269 0.970118C8.07875 1.57406 7.73621 2.3628 7.71368 3.1966C7.69565 3.82308 7.8579 4.44055 8.1779 4.97689C8.88551 6.15773 10.3097 6.72112 11.725 6.38309C12.2297 6.2614 12.9599 6.22985 13.5999 6.75717C13.5999 6.75717 13.6044 6.75717 13.6044 6.76168C14.1047 7.17182 14.4247 7.75323 14.5824 8.54196C14.7357 9.31718 14.8528 10.1149 14.9295 10.9217C15.0602 12.3234 15.4883 13.6214 16.1959 14.7797C16.5475 15.3476 16.9216 15.9065 17.2821 16.4473C17.3498 16.5465 17.4174 16.6502 17.485 16.7493C17.6247 16.9611 17.7734 17.1685 17.9131 17.3668C18.0979 17.6282 18.2737 17.8806 18.436 18.133C18.5036 18.2366 18.6117 18.4304 18.5892 18.5611C18.5712 18.6603 18.472 18.8 18.3007 18.9442C17.9537 19.2417 17.4985 19.4175 17.0523 19.5572C15.6326 20.0124 14.0551 20.2693 12.0765 20.364H9.92664C7.95255 20.2738 6.37057 20.0169 4.95085 19.5572C4.50916 19.413 4.04944 19.2417 3.7024 18.9442C3.53113 18.7955 3.43198 18.6603 3.41395 18.5611C3.39141 18.4304 3.50409 18.2366 3.56719 18.133C3.73395 17.8761 3.90522 17.6282 4.09001 17.3668C4.22972 17.1685 4.37846 16.9611 4.51818 16.7493C4.58578 16.6502 4.65339 16.5465 4.72099 16.4473C5.08156 15.9065 5.45564 15.3476 5.80719 14.7797C6.51931 13.6259 6.94297 12.3279 7.07367 10.9217C7.15029 10.1149 7.26297 9.31718 7.42072 8.54196C7.48382 8.21746 7.57846 7.9245 7.70015 7.6676C7.88945 7.26196 7.71818 6.77971 7.31255 6.5859C6.90691 6.39661 6.42466 6.56788 6.23085 6.97351C6.05508 7.3476 5.91536 7.77126 5.82522 8.22196C5.65846 9.05126 5.53677 9.9076 5.45564 10.7684C5.34747 11.9358 5.00944 12.9724 4.41902 13.9279C4.0855 14.4732 3.72043 15.0186 3.36888 15.5459C3.30127 15.6451 3.23367 15.7487 3.16606 15.8479C3.03536 16.0417 2.90014 16.231 2.76043 16.4338C2.57564 16.6997 2.38183 16.9747 2.19704 17.2586C1.53 18.3223 1.68324 19.3589 2.64324 20.1837C3.20662 20.6704 3.84662 20.9183 4.45508 21.1166C6.01902 21.6214 7.74072 21.9009 9.87255 22C9.88608 22 9.8996 22 9.90861 22H12.0945C12.1081 22 12.1216 22 12.1306 22C14.2624 21.9009 15.9841 21.6214 17.5481 21.1166C18.1565 20.9228 18.7965 20.6749 19.3599 20.1837C20.3154 19.3544 20.4731 18.3178 19.7971 17.2676Z" fill="#9A9CB2"/>
</g>
<defs>
<clipPath id="clip0">
<rect width="22" height="22" fill="white"/>
</clipPath>
</defs>
</svg>
