<svg width="22" height="22" viewBox="0 0 22 22" fill="none" xmlns="http://www.w3.org/2000/svg">
<path d="M16.5112 11.523C16.2091 11.1939 15.6952 11.1713 15.3661 11.4734C15.037 11.7754 15.0144 12.2893 15.3165 12.6184C16.3128 13.7049 16.8628 15.116 16.8628 16.5902V20.075C16.8628 20.2373 16.7276 20.3725 16.5653 20.3725H5.42551C5.26321 20.3725 5.12796 20.2373 5.12796 20.075V16.5902C5.12796 13.3533 7.76075 10.725 10.9931 10.725C13.9505 10.725 16.3579 8.31762 16.3579 5.36025C16.3579 2.40287 13.955 0 10.9976 0C8.04026 0 5.63288 2.40738 5.63288 5.36475C5.63288 6.24836 5.85378 7.12746 6.26854 7.90287C6.48042 8.29959 6.97182 8.44385 7.36854 8.23197C7.76526 8.02008 7.90952 7.52869 7.69764 7.13197C7.40911 6.59098 7.25583 5.98238 7.25583 5.36475C7.25583 3.3 8.93288 1.62295 10.9976 1.62295C13.0624 1.62295 14.7394 3.3 14.7394 5.36475C14.7394 7.42951 13.0624 9.10656 10.9976 9.10656C6.86813 9.10656 3.50952 12.4652 3.50952 16.5947V20.0795C3.50952 21.1389 4.37059 22 5.43001 22H16.5698C17.6292 22 18.4903 21.1389 18.4903 20.0795V16.5947C18.4903 14.7102 17.787 12.9115 16.5112 11.523Z" fill="#9A9CB2"/>
</svg>
